# xmcd
#
# Track frame offsets: 
#        150
#        43530
#        72684
#        87992
#        113252
#        134868
#        153097
#        168142
#        200694
#        224172
#        244290
#
# Disc length: 3511 seconds
#
# Revision: 0
# Processed by: cddbd v1.5.2PL0 Copyright (c) Steve Scherf et al.
# Submitted via: ExactAudioCopy v1.3
#
DISCID=a30db50b
DTITLE=Voo Voo - Za niebawem
DYEAR=2019
DGENRE=Blues
TTITLE0=Niespiesznie 1,2
TTITLE1=Takie tam 1
TTITLE2=Takie tam 2
TTITLE3=Przybysze
TTITLE4=Się poruszam 1
TTITLE5=Się poruszam 2
TTITLE6=Nocą
TTITLE7=Nieud
TTITLE8=Dzie Ci Kwiaty 1
TTITLE9=Dzie Ci Kwiaty 2
TTITLE10=Z ostatniej chwili
EXTD=
EXTT0=
EXTT1=
EXTT2=
EXTT3=
EXTT4=
EXTT5=
EXTT6=
EXTT7=
EXTT8=
EXTT9=
EXTT10=
PLAYORDER=
